# xmcd CD database file
#
# Track frame offsets:
#	150
#	23343
#	42260
#	69688
#	87755
#	111825
#	122628
#	145120
#	166403
#	192993
#	207208
#	222788
#	241093
#	279350
#
# Disc length: 3832 seconds
#
# Revision: 1
# Processed by: cddbd v1.5.1PL0 Copyright (c) Steve Scherf et al.
# Submitted via: CDex 1.51
#
DISCID=bc0ef60e
DTITLE=オムニバス - Acoustic Guitar Summit
DYEAR=2003
DGENRE=Jazz
TTITLE0=RIO FUNK/Lee RAitenour
TTITLE1=AGHARTAへの道/J&B featuring 角松敏生
TTITLE2=Orson's Restaurant/Kapono Beamer
TTITLE3=After the Rain/森園勝敏
TTITLE4=Azure～Polovetsian Dance from Opera "Prince Igor"/天野清継
TTITLE5=Happy Christmas/安藤まさひろ＆みくりや裕二
TTITLE6=野生の風/Ulisses Rocha
TTITLE7=Blue Cloud/PINK CLOUD
TTITLE8=RAINBOW/Lee Ritenour
TTITLE9=Moonlight Serenade/吉川忠英
TTITLE10=DANCE WITH ME/Earl Klugh
TTITLE11=Platypus/GONTITI
TTITLE12=HAWAIIAN VILLAGE/秋山一将
TTITLE13=GREENSLEEVES/Jeff Beck
EXTD=YEAR: 2003
EXTT0=
EXTT1=
EXTT2=
EXTT3=
EXTT4=
EXTT5=
EXTT6=
EXTT7=
EXTT8=
EXTT9=
EXTT10=
EXTT11=
EXTT12=
EXTT13=
PLAYORDER=
